# AST/ASF file generated using VICON BodyLanguage
# -----------------------------------------------
:version 1.10
:name VICON
:units
  mass 1.0
  length 0.45
  angle deg
:documentation
   .ast/.asf automatically generated from VICON data using
   VICON BodyBuilder and BodyLanguage model FoxedUp or BRILLIANT.MOD
:root
   order TX TY TZ RX RY RZ
   axis XYZ
   position 0 0 0  
   orientation 0 0 0 
:bonedata
  begin
     id 1 
     name lhipjoint
     direction 0.547975 -0.797114 0.253638 
     length 2.36201 
     axis 0 0 0  XYZ
  end
  begin
     id 2 
     name lfemur
     direction 0.34202 -0.939693 0  
     length 7.69075  
     axis 0 0 20  XYZ
    dof rx ry rz
    limits (-160.0 20.0)
           (-70.0 70.0)
           (-60.0 70.0)
  end
  begin
     id 3 
     name ltibia
     direction 0.34202 -0.939693 0   
     length 7.91399   
     axis 0 0 20   XYZ
    dof rx
    limits (-10.0 170.0)
  end
  begin
     id 4 
     name lfoot
     direction 0.0705293 -0.193778 0.978507   
     length 2.13618   
     axis -90 7.62852e-016 20   XYZ
    dof rx rz
    limits (-45.0 90.0)
           (-70.0 20.0)
  end
  begin
     id 5 
     name ltoes
     direction 1.53592e-011 -4.21925e-011 1   
     length 1.07518   
     axis -90 7.62852e-016 20   XYZ
    dof rx
    limits (-90.0 20.0)
  end
  begin
     id 6 
     name rhipjoint
     direction -0.57 -0.782963 0.249136   
     length 2.4047  
     axis 0 0 0  XYZ 
  end
  begin
     id 7 
     name rfemur
     direction -0.34202 -0.939693 0   
     length 7.51486   
     axis 0 0 -20   XYZ
    dof rx ry rz
    limits (-160.0 20.0)
           (-70.0 70.0)
           (-70.0 60.0)
  end
  begin
     id 8 
     name rtibia
     direction -0.34202 -0.939693 0   
     length 8.08317   
     axis 0 0 -20   XYZ
    dof rx
    limits (-10.0 170.0)
 end
 begin
     id 9 
     name rfoot
     direction -0.104954 -0.281256 0.953876   
     length 2.30343  
     axis -90 -7.62852e-016 -20   XYZ
    dof rx rz
    limits (-45.0 90.0)
           (-20.0 70.0)
  end
  begin
     id 10 
     name rtoes
     direction -1.53556e-011 -4.21922e-011 1   
     length 1.14803   
     axis -90 -7.62852e-016 -20   XYZ
    dof rx
    limits (-90.0 20.0)
  end
  begin
     id 11 
     name lowerback
     direction -0.0152855 0.99353 -0.11254   
     length 2.05311   
     axis 0 0 0   XYZ
    dof rx ry rz
    limits (-20.0 45.0)
           (-30.0 30.0)
           (-30.0 30.0)
  end
  begin
     id 12 
     name upperback
     direction -0.00157509 0.999443 -0.033332   
     length 2.06353   
     axis 0 0 0   XYZ
    dof rx ry rz
    limits (-20.0 45.0)
           (-30.0 30.0)
           (-30.0 30.0)
  end
  begin
     id 13 
     name thorax
     direction 0.00577788 0.999804 0.0189484   
     length 2.08472   
     axis 0 0 0   XYZ
    dof rx ry rz
    limits (-20.0 45.0)
           (-30.0 30.0)
           (-30.0 30.0)
  end
  begin
     id 14 
     name lowerneck
     direction -1.09301e-005 0.994719 0.10264   
     length 1.76249   
     axis 0 0 0   XYZ
    dof rx ry rz
    limits (-20.0 45.0)
           (-30.0 30.0)
           (-30.0 30.0)
  end
  begin
     id 15 
     name upperneck
     direction 0.0495018 0.988526 -0.142706   
     length 1.77897   
     axis 0 0 0   XYZ
    dof rx ry rz
    limits (-20.0 45.0)
           (-30.0 30.0)
           (-30.0 30.0)
  end
  begin
     id 16
     name head
     direction 0.0142736 0.998114 -0.0597101  
     length 1.78934  
     axis 0 0 0   XYZ
    dof rx ry rz
    limits (-20.0 45.0)
           (-30.0 30.0)
           (-30.0 30.0)
  end
  begin
     id 17 
     name lclavicle
     direction 0.918111 0.396107 -0.0130883  
     length 3.37276  
     axis 0 0 0   XYZ
    dof ry rz
    limits (-20.0 10.0)
           (0.0 20.0)
  end
  begin
     id 18 
     name lhumerus
     direction 1 -4.48975e-011 -3.26108e-027   
     length 5.34298   
     axis 180 -30 -90   XYZ
    dof rx ry rz
    limits (-60.0 90.0)
           (-90.0 90.0)
           (-90.0 90.0)
  end
  begin
     id 19
     name lradius
     direction 1 -4.48964e-011 -8.84413e-028   
     length 3.67262   
     axis 180 -30 -90   XYZ
    dof rx
    limits (-10.0 170.0)
  end
  begin
     id 20
     name lwrist
     direction 1 -4.48991e-011 -1.24264e-027   
     length 1.83631   
     axis -2.17013e-015 90 90   XYZ
    dof ry
    limits (-180.0 0.0)
 end
  begin
     id 21 
     name lhand
     direction 1 -4.48855e-011 -2.48528e-027   
     length 0.599298   
     axis 1.58582e-015 90 90   XYZ
    dof rx rz
    limits (-90.0 90.0)
           (-45.0 45.0)
  end
  begin
     id 22 
     name lfingers
     direction 1 -4.48811e-011 -4.97056e-027   
     length 0.48317   
     axis 3.17164e-015 90 90   XYZ
    dof rx
    limits (0.0 90.0)
  end
  begin
     id 23
     name lthumb
     direction 0.707107 -6.34882e-011 0.707107   
     length 0.693738   
     axis -90 45 2.85299e-015   XYZ
    dof rx rz
    limits (-45.0 45.0)
           (-45.0 45.0)
  end
  begin
     id 24 
     name rclavicle
     direction -0.920511 0.384752 -0.0680135   
     length 3.43787  
     axis 0 0 0   XYZ 
    dof ry rz
    limits (-10.0 20.0)
           (-20.0 0.0)
  end
  begin
     id 25 
     name rhumerus
     direction -0.999976 -0.00330524 0.00603274  
     length 5.5498   
     axis 180 30 90   XYZ
    dof rx ry rz
    limits (-90.0 60.0)
           (-90.0 90.0)
           (-90.0 90.0)
  end
  begin
     id 26 
     name rradius
     direction -1 -4.48967e-011 8.62438e-027   
     length 3.69401   
     axis 180 30 90   XYZ
    dof rx
    limits (-10.0 170.0)
  end
  begin
     id 27 
     name rwrist
     direction -1 -4.4897e-011 9.54866e-027   
     length 1.84701   
     axis -7.69462e-015 -90 -90   XYZ
    dof ry
    limits (-180.0 0.0)
  end
  begin
     id 28
     name rhand
     direction -1 -4.48982e-011 1.90973e-026   
     length 0.638113   
     axis -1.21857e-014 -90 -90   XYZ
    dof rx rz
    limits (-90.0 90.0)
           (-45.0 45.0)
  end
  begin
     id 29
     name rfingers
     direction -1 -4.48936e-011 3.81946e-026   
     length 0.514463   
     axis -2.43714e-014 -90 -90   XYZ
    dof rx
    limits (0.0 90.0)
  end
  begin
     id 30
     name rthumb
     direction -0.707107 -6.34942e-011 0.707107   
     length 0.738669   
     axis -90 -45 -2.85299e-015   XYZ
    dof rx rz
    limits (-45.0 45.0)
           (-45.0 45.0)
  end
:hierarchy
  begin
    root lhipjoint rhipjoint lowerback
    lhipjoint lfemur
    lfemur ltibia
    ltibia lfoot
    lfoot ltoes
    rhipjoint rfemur
    rfemur rtibia
    rtibia rfoot
    rfoot rtoes
    lowerback upperback
    upperback thorax
    thorax lowerneck lclavicle rclavicle
    lowerneck upperneck
    upperneck head
    lclavicle lhumerus
    lhumerus lradius
    lradius lwrist
    lwrist lhand lthumb
    lhand lfingers
    rclavicle rhumerus
    rhumerus rradius
    rradius rwrist
    rwrist rhand rthumb
    rhand rfingers
  end

#!OML:ASF F:\twosubjects\two\Thursday\Session 1\Rory.ASF
:FULLY-SPECIFIED
:DEGREES
97
root 9.69594 19.4457 8.2048 -146.567 -84.5318 156.865
lowerback 4.08308 -0.669431 -1.26488
upperback 0.200897 -0.982692 -0.989722
thorax -2.07858 -0.487006 -0.249306
lowerneck -13.3436 -7.14017 -7.05129
upperneck 5.8383 -9.48249 10.9359
head 4.79958 -4.24778 3.72487
rclavicle 2.60905e-015 5.26779e-015
rhumerus -31.4144 -33.2941 -54.18
rradius 39.1649
rwrist 0.325476
rhand -33.9606 30.7812
rfingers 7.12502
rthumb -7.1415 0.921736
lclavicle 2.60905e-015 5.26779e-015
lhumerus -37.1548 18.0412 56.574
lradius 37.4091
lwrist 6.53471
lhand -9.72395 36.5246
lfingers 7.12502
lthumb 16.2495 65.8636
rfemur -25.6654 8.81301 15.7
rtibia 42.1751
rfoot 2.16738 0.614311
rtoes -8.62836
lfemur -22.7453 5.93755 -21.353
ltibia 42.3131
lfoot -0.795176 -8.77748
ltoes 3.78514
98
root 9.70398 19.2775 8.20188 -147.285 -84.4989 157.709
lowerback 4.06345 -0.712137 -1.40425
upperback 0.291233 -1.04204 -0.891418
thorax -1.97021 -0.515756 -0.0679411
lowerneck -13.4164 -7.11605 -7.08118
upperneck 5.72653 -9.43973 11.0016
head 4.77838 -4.22492 3.75344
rclavicle -1.66234e-014 -5.96354e-015
rhumerus -32.2955 -33.7053 -56.3398
rradius 39.3814
rwrist 1.48132
rhand -34.1665 31.2378
rfingers 7.12502
rthumb -7.34028 1.38511
lclavicle -1.66234e-014 -5.96354e-015
lhumerus -38.2971 19.0769 58.4379
lradius 37.2062
lwrist 6.47211
lhand -9.26071 36.5434
lfingers 7.12502
lthumb 16.6955 65.8455
rfemur -25.8398 9.33715 16.184
rtibia 42.9784
rfoot -0.0478285 -0.212165
rtoes -11.3728
lfemur -23.1157 6.44388 -21.7476
ltibia 42.9143
lfoot -0.781403 -6.84776
ltoes 2.82775
99
root 9.71682 19.0974 8.20058 -145.321 -84.4191 155.877
lowerback 4.00584 -0.762662 -1.75228
upperback 0.420241 -1.12376 -0.913944
thorax -1.79861 -0.556243 0.106437
lowerneck -13.6285 -7.12797 -6.99479
upperneck 5.66537 -9.47506 11.1433
head 4.80172 -4.22908 3.77483
rclavicle -4.91992e-015 -1.21259e-014
rhumerus -33.2293 -34.145 -58.5993
rradius 39.8743
rwrist 2.38034
rhand -34.3145 32.2448
rfingers 7.12502
rthumb -7.48317 2.39718
lclavicle -4.91992e-015 -1.21259e-014
lhumerus -39.1506 20.1925 60.2248
lradius 36.8451
lwrist 5.77488
lhand -8.97352 36.3938
lfingers 7.12502
lthumb 16.9719 65.6723
rfemur -26.0448 9.35068 16.4159
rtibia 43.9521
rfoot -3.87958 -1.00418
rtoes -15.3036
lfemur -23.5136 6.91848 -22.3765
ltibia 43.606
lfoot -1.49174 -5.88241
ltoes 1.44358
100
root 9.72949 18.9158 8.19962 -143.719 -84.2575 154.354
lowerback 4.02468 -0.825506 -2.01833
upperback 0.511836 -1.22343 -1.04888
thorax -1.71118 -0.606893 0.121803
lowerneck -13.5996 -7.04478 -6.73583
upperneck 5.40474 -9.41085 11.2901
head 4.7079 -4.1945 3.78894
rclavicle -3.53837e-014 8.94531e-015
rhumerus -33.8501 -34.4117 -61.0495
rradius 39.8585
rwrist 3.72314
rhand -34.7343 33.4366
rfingers 7.12502
rthumb -7.8883 3.60376
lclavicle -3.53837e-014 8.94531e-015
lhumerus -39.9856 21.1345 61.7049
lradius 36.5397
lwrist 4.97245
lhand -8.37235 35.9783
lfingers 7.12502
lthumb 17.5505 65.2061
rfemur -26.1933 9.36501 16.5671
rtibia 45.0039
rfoot -7.54565 -1.90532
rtoes -14.794
lfemur -23.8239 7.63782 -22.9915
ltibia 44.4491
lfoot -3.89766 -6.70399
ltoes -0.516531
101
root 9.73809 18.7248 8.19245 -144.21 -84.3589 154.874
lowerback 4.16077 -0.852538 -1.82876
upperback 0.52023 -1.26195 -1.28303
thorax -1.78756 -0.628655 -0.220107
lowerneck -13.5033 -7.03373 -6.15717
upperneck 5.3582 -9.50738 11.2962
head 4.66063 -4.23673 3.69188
rclavicle -1.49089e-016 1.64991e-014
rhumerus -34.571 -34.8878 -63.5193
rradius 39.316
rwrist 5.73158
rhand -36.0029 33.365
rfingers 7.12502
rthumb -9.11258 3.58182
lclavicle -1.49089e-016 1.64991e-014
lhumerus -40.7301 21.4876 62.9389
lradius 36.3552
lwrist 4.5749
lhand -7.53512 35.3707
lfingers 7.12502
lthumb 18.3561 64.5246
rfemur -26.2819 9.50472 17.0399
rtibia 46.0368
rfoot -10.3999 -2.90263
rtoes -14.4211
lfemur -24.0051 8.30607 -23.1726
ltibia 45.4848
lfoot -7.67058 -7.40624
ltoes -2.38598
102
root 9.74489 18.5313 8.18138 -145.63 -84.4938 156.284
lowerback 4.21449 -0.809932 -1.66305
upperback 0.60768 -1.20142 -1.39565
thorax -1.73423 -0.601336 -0.431695
lowerneck -13.555 -7.15485 -5.96241
upperneck 5.39925 -9.73717 11.5041
head 4.70526 -4.33377 3.6999
rclavicle 6.4605e-016 1.78906e-014
rhumerus -35.2304 -35.5958 -65.7102
rradius 38.8246
rwrist 6.63296
rhand -36.5493 32.5866
rfingers 7.12502
rthumb -9.63981 2.82716
lclavicle 6.4605e-016 1.78906e-014
lhumerus -41.2054 21.8452 64.3499
lradius 36.0307
lwrist 4.06558
lhand -6.97331 35.0566
lfingers 7.12502
lthumb 18.8965 64.1587
rfemur -26.3854 9.5695 17.5664
rtibia 47.0058
rfoot -12.9981 -4.02484
rtoes -15.8019
lfemur -24.1174 8.75581 -23.1473
ltibia 46.6798
lfoot -10.903 -6.9669
ltoes -4.4358
